<svg width="21" height="21" viewBox="0 0 21 21" fill="none" xmlns="http://www.w3.org/2000/svg">
<rect x="1.40137" y="19.801" width="19" height="19" rx="5.5" transform="rotate(-90 1.40137 19.801)" stroke="#002140"/>
<path d="M5.90137 10.301C5.90137 10.8533 6.34908 11.301 6.90137 11.301L9.90137 11.301L9.90137 14.301C9.90137 14.8533 10.3491 15.301 10.9014 15.301C11.4537 15.301 11.9014 14.8533 11.9014 14.301L11.9014 11.301L14.9014 11.301C15.4537 11.301 15.9014 10.8533 15.9014 10.301C15.9014 9.74874 15.4537 9.30102 14.9014 9.30102L11.9014 9.30103L11.9014 6.30103C11.9014 5.74874 11.4537 5.30103 10.9014 5.30103C10.3491 5.30103 9.90137 5.74874 9.90137 6.30103L9.90137 9.30103L6.90137 9.30103C6.34908 9.30103 5.90137 9.74874 5.90137 10.301Z" fill="#002140"/>
</svg>
