<svg width="24" height="25" viewBox="0 0 24 25" fill="none" xmlns="http://www.w3.org/2000/svg">
<path d="M23.6496 12.7673C23.6496 11.3159 22.3682 10.3074 20.9168 10.3074H14.3311C13.098 10.3074 12.0984 11.307 12.0984 12.54C12.0984 13.7731 13.098 14.7727 14.3311 14.7727H15.2943C17.1212 14.7727 18.4861 16.47 17.2512 17.8163C16.9827 18.109 16.674 18.3875 16.322 18.6395C16.2889 18.6632 16.2662 18.6994 16.2602 18.7397C16.2522 18.793 16.2736 18.8465 16.3162 18.8795L19.7425 21.5338C19.7926 21.5726 19.8526 21.5965 19.9156 21.6028C20.0116 21.6124 20.1074 21.5806 20.1773 21.5141C22.3819 19.4177 23.6496 16.3706 23.6496 12.7673Z" fill="#4285F4"/>
<path d="M12.0984 24.5324C14.1782 24.5324 16.0443 24.094 17.6406 23.2945C19.0258 22.6007 18.9521 20.7545 17.7274 19.8058C16.8602 19.134 15.6661 19.1503 14.6249 19.4959C13.8976 19.7373 13.0596 19.8797 12.0984 19.8797C8.95236 19.8797 6.27681 17.8278 5.28642 14.9774C5.26659 14.9203 5.21079 14.8833 5.15057 14.8884C5.12548 14.8905 5.10154 14.8998 5.08163 14.9152L1.44381 17.7306C1.41387 17.7538 1.39116 17.785 1.37834 17.8206C1.35986 17.872 1.36326 17.9288 1.38816 17.9774C3.38079 21.8666 7.42288 24.5324 12.0984 24.5324Z" fill="#34A853"/>
<path d="M5.25326 14.8797C4.99924 14.131 4.85223 13.3288 4.85223 12.4999C4.85223 11.6865 4.99377 10.899 5.22643 10.1624C5.23527 10.1344 5.23926 10.1051 5.23802 10.0758C5.23494 10.0028 5.19987 9.93485 5.14215 9.89002L1.54149 7.09371C1.49916 7.06084 1.44192 7.05462 1.39352 7.07764C1.36494 7.09124 1.3417 7.11398 1.32766 7.14235C0.525598 8.76242 0.065979 10.5787 0.065979 12.4999C0.065979 12.7231 0.0721797 12.9448 0.0843975 13.165C0.226018 15.7171 3.23189 16.4441 5.25326 14.8797Z" fill="#FBBC05"/>
<path d="M12.0988 5.12005C13.1907 5.12005 14.111 5.34801 14.8685 5.67566C16.0304 6.1782 17.4653 6.2145 18.371 5.33013C19.3377 4.38628 19.3272 2.79922 18.1686 2.10438C16.4363 1.06555 14.4019 0.467529 12.0988 0.467529C8.04302 0.467529 4.4639 2.47334 2.28567 5.54363C1.67498 6.40442 1.9509 7.56558 2.78446 8.21295C3.98513 9.14545 5.78216 8.58212 6.81044 7.46238C8.13249 6.02275 10.0121 5.12005 12.0988 5.12005Z" fill="#EB4335"/>
</svg>
