<svg width="25" height="13" viewBox="0 0 25 13" fill="none" xmlns="http://www.w3.org/2000/svg">
<path d="M0.496002 1.74026C0.496002 1.34146 0.655934 0.958991 0.940614 0.676994C1.22529 0.394997 1.6114 0.236572 2.014 0.236572H23.266C23.6686 0.236572 24.0547 0.394997 24.3394 0.676994C24.6241 0.958991 24.784 1.34146 24.784 1.74026C24.784 2.13907 24.6241 2.52154 24.3394 2.80354C24.0547 3.08553 23.6686 3.24396 23.266 3.24396H2.014C1.6114 3.24396 1.22529 3.08553 0.940614 2.80354C0.655934 2.52154 0.496002 2.13907 0.496002 1.74026Z" fill="#070648"/>
<path d="M2.014 9.25879C1.6114 9.25879 1.22529 9.41721 0.940614 9.69921C0.655934 9.98121 0.496002 10.3637 0.496002 10.7625C0.496002 11.1613 0.655934 11.5438 0.940614 11.8258C1.22529 12.1077 1.6114 12.2662 2.014 12.2662H14.158C14.5606 12.2662 14.9467 12.1077 15.2314 11.8258C15.5161 11.5438 15.676 11.1613 15.676 10.7625C15.676 10.3637 15.5161 9.98121 15.2314 9.69921C14.9467 9.41721 14.5606 9.25879 14.158 9.25879H2.014Z" fill="#070648"/>
</svg>
