<svg width="20" height="21" viewBox="0 0 20 21" fill="none" xmlns="http://www.w3.org/2000/svg">
<path d="M4.4286 16.4919L3.69678 4.05103H17.106L16.3741 16.4919C16.2731 18.2097 14.8505 19.551 13.1297 19.551H7.67299C5.95219 19.551 4.52964 18.2097 4.4286 16.4919Z" stroke="#0D986A" stroke-width="1.5"/>
<rect x="19.9014" y="3.30103" width="2" height="19" rx="1" transform="rotate(90 19.9014 3.30103)" fill="#0D986A"/>
<rect x="14.9014" y="0.301025" width="2" height="9" rx="1" transform="rotate(90 14.9014 0.301025)" fill="#0D986A"/>
<path d="M8.90137 15.7733C8.90137 16.0648 8.66511 16.301 8.37367 16.301C8.10479 16.301 7.8789 16.0988 7.84921 15.8316L7.01792 8.34995C6.95574 7.7904 7.39375 7.30103 7.95675 7.30103C8.47845 7.30103 8.90137 7.72394 8.90137 8.24564L8.90137 15.7733Z" fill="#0D986A"/>
<path d="M12.9535 15.8316C12.9238 16.0988 12.6979 16.301 12.4291 16.301C12.1376 16.301 11.9014 16.0648 11.9014 15.7733L11.9014 8.24564C11.9014 7.72394 12.3243 7.30103 12.846 7.30103C13.409 7.30103 13.847 7.7904 13.7848 8.34996L12.9535 15.8316Z" fill="#0D986A"/>
</svg>
